<svg viewBox="0 0 242 123" xmlns="http://www.w3.org/2000/svg">
<g class="bg" fill="none">
	<ellipse cx="121" cy="61.5" rx="121" ry="61.5" />
</g>
<g class="fg" fill="white">
	<path d="M201.667 47.3333V63.6667L181.17 47.3333H176.667V70.3333H182V54.6667L201.66 70.3333H207.333V47.3333H201.667Z" />
	<path fill-rule="evenodd" clip-rule="evenodd" d="M146 47.3333C143.239 47.3333 141 49.572 141 52.3333V65.3333C141 68.0947 143.239 70.3333 146 70.3333H168.667C171.428 70.3333 173.667 68.0947 173.667 65.3333V52.3333C173.667 49.572 171.428 47.3333 168.667 47.3333H146ZM152.595 59C152.597 59 152.598 59.0023 152.597 59.0047C152.215 59.7533 152 60.6017 152 61.5C152 64.5377 154.462 67 157.5 67C160.538 67 163 64.5377 163 61.5C163 60.6017 162.785 59.7533 162.403 59.0047C162.402 59.0023 162.403 59 162.405 59C162.408 59 162.409 58.9973 162.408 58.9953L158.08 51.357C157.825 50.9063 157.175 50.9063 156.92 51.357L152.592 58.9953C152.591 58.9973 152.592 59 152.595 59Z" />
	<path d="M107 47.3333H102.333V70.3333H107.667V56.8333L117.678 70.3333H121.822L131.833 56.8333V70.3333H137.333V47.3333H132.333L119.667 64.5L107 47.3333Z" />
	<path d="M71.3333 47.3333H66V65.3333C66 68.0947 68.2387 70.3333 71 70.3333H93.3333C96.0947 70.3333 98.3333 68.0947 98.3333 65.3333V47.3333H93V63.6667C93 65.1393 91.806 66.3333 90.3333 66.3333H74C72.5273 66.3333 71.3333 65.1393 71.3333 63.6667V47.3333Z" />
	<path d="M40 47.3333H34.6667V70.3333H62.3333V66.3333H40V47.3333Z" />
	<path fill-rule="evenodd" clip-rule="evenodd" d="M122 0C122.225 0 122.449 0.0006363 122.674 0.00190656C122.782 0.0006363 122.891 0 123 0C123.314 0 123.627 0.00528843 123.939 0.0158092C124.069 0.0179395 124.2 0.0202845 124.33 0.0228434C189.617 0.919517 242 28.1005 242 61.5C242 94.8993 189.617 122.08 124.33 122.977C124.253 122.979 124.176 122.98 124.099 122.981C124.046 122.982 123.992 122.983 123.939 122.984C123.627 122.995 123.314 123 123 123C122.945 123 122.89 123 122.835 123C122.781 122.999 122.727 122.999 122.674 122.998C122.449 122.999 122.225 123 122 123C121.945 123 121.891 123 121.836 123C121.754 123 121.671 123 121.588 122.999C121.392 123 121.196 123 121 123C54.1737 123 0 95.4657 0 61.5C0 27.5345 54.1737 0 121 0C121.196 0 121.392 0.0002374 121.588 0.000711667C121.725 0.000237393 121.863 0 122 0ZM239 61.5C239 73.8497 230.984 85.7633 216.499 95.6667H192.409C196.735 90.972 200.195 85.8207 202.623 80.3333H199.321C196.701 85.835 192.955 90.9953 188.245 95.6667H157.096C159.191 90.972 160.866 85.8207 162.042 80.3333H158.971C157.739 85.872 155.98 91.028 153.796 95.6667H92.2043C90.0197 91.028 88.2613 85.872 87.0287 80.3333H83.9583C85.1337 85.8207 86.8093 90.972 88.904 95.6667H55.755C51.045 90.9953 47.2993 85.835 44.6793 80.3333H41.377C43.8047 85.8207 47.2647 90.972 51.5907 95.6667H25.501C11.0161 85.7633 3 73.8497 3 61.5C3 48.164 12.3475 35.3363 29.0942 25H53.8503C49.5983 29.1818 46.0587 33.7687 43.3607 38.6667H46.8173C49.739 33.7503 53.587 29.1559 58.2333 25H89.9983C87.9393 29.1818 86.2253 33.7687 84.9187 38.6667H88.028C89.4023 33.719 91.2067 29.128 93.362 25H152.638C154.793 29.128 156.598 33.719 157.972 38.6667H161.081C159.775 33.7687 158.061 29.1818 156.002 25H185.767C190.413 29.1559 194.261 33.7503 197.183 38.6667H200.639C197.941 33.7687 194.402 29.1818 190.15 25H212.906C229.652 35.3363 239 48.164 239 61.5ZM189.111 99H211.249C209.324 100.137 207.307 101.242 205.201 102.313C192.383 108.827 176.56 113.885 158.829 116.893C170.747 112.704 181.108 106.546 189.111 99ZM184.623 99H155.499C150.943 107.87 144.81 114.822 137.729 118.912C154.187 116.604 168.832 110.748 180.105 102.56C181.68 101.416 183.187 100.228 184.623 99ZM149.495 103.323C150.41 101.951 151.281 100.508 152.104 99H93.8957C94.719 100.508 95.59 101.951 96.5047 103.323C103.452 113.744 112.689 119.802 122.515 119.995C122.992 119.992 123.468 119.988 123.944 119.982C133.598 119.612 142.656 113.582 149.495 103.323ZM90.5013 99H59.3767C60.8127 100.228 62.3197 101.416 63.8947 102.56C75.7553 111.175 91.3483 117.208 108.859 119.244C101.53 115.204 95.1823 108.114 90.5013 99ZM54.8887 99H30.7506C32.6761 100.137 34.6933 101.242 36.7993 102.313C50.5193 109.286 67.6817 114.59 86.9433 117.497C74.2797 113.307 63.286 106.917 54.8887 99ZM207.085 21.6667C206.465 21.3371 205.837 21.0106 205.201 20.6873C192.383 14.1725 176.56 9.11517 158.829 6.1074C169.494 9.8556 178.912 15.181 186.51 21.6667H207.085ZM181.746 21.6667C181.208 21.2525 180.661 20.8436 180.105 20.4402C168.832 12.2517 154.187 6.3959 137.729 4.08767C144.176 7.8118 149.838 13.9094 154.239 21.6667H181.746ZM150.761 21.6667C150.349 20.9881 149.927 20.3247 149.495 19.677C142.656 9.4178 133.598 3.3878 123.944 3.01807C123.468 3.01222 122.992 3.00779 122.515 3.00478C112.689 3.19816 103.452 9.25557 96.5047 19.677C96.073 20.3247 95.651 20.9881 95.239 21.6667H150.761ZM91.761 21.6667C96.295 13.6744 102.168 7.44397 108.859 3.75583C91.3483 5.7918 75.7553 11.825 63.8947 20.4402C63.3393 20.8436 62.7923 21.2525 62.254 21.6667H91.761ZM57.4903 21.6667C65.506 14.8241 75.5483 9.27297 86.9433 5.503C67.6817 8.4105 50.5193 13.714 36.7993 20.6873C36.1633 21.0106 35.5353 21.3371 34.9153 21.6667H57.4903Z" />
</g>
</svg>
